<svg id="Layer_1" data-name="Layer 1" xmlns="http://www.w3.org/2000/svg" viewBox="0 0 2268 793.1"><defs><style>.cls-1{fill:gold;}.cls-2{fill:none;}</style></defs><title>bg-shape-new</title><path class="cls-1" d="M2181.56,241.58V793.1H0V34.41C726.08,997.56,1573.62-349.37,2181.56,241.58Z" transform="translate(27)"/><path class="cls-2" d="M2181.56,0V241.58C1573.62-349.37,726.08,997.56,0,34.41V0Z" transform="translate(27)"/><path class="cls-2" d="M0,34.41V793.1H-27S-10.5,326.4-25.19,0Q-12.62,17.67,0,34.41Z" transform="translate(27)"/><path class="cls-2" d="M2241,793.1h-59.44V241.58q15.71,15.27,31.21,32.29C2237.24,735,2241,793.1,2241,793.1Z" transform="translate(27)"/><path class="cls-2" d="M2181.56,241.58V793.1H0V34.41C726.08,997.56,1573.62-349.37,2181.56,241.58Z" transform="translate(27)"/></svg>