<svg xmlns="http://www.w3.org/2000/svg" width="63" height="62" viewBox="0 0 63 62">
  <g id="choose-1" transform="translate(0 -0.121)">
    <ellipse id="Ellipse_1251" data-name="Ellipse 1251" cx="31.5" cy="31" rx="31.5" ry="31" transform="translate(0 0.121)" fill="gold"/>
    <g id="wipe" transform="translate(14.106 15.226)">
      <path id="Path_11493" data-name="Path 11493" d="M67.653,47.922,64.628,44.9l.1-.419,3.308-.979a.592.592,0,0,0,0-1.135l-3.308-.979-.721-3.028a.591.591,0,0,0-1.151,0l-.72,3.028-.785.232-4.725-4.724a4.624,4.624,0,0,0-6.54,0L39.058,47.922a4.63,4.63,0,0,0,0,6.541l.552.552-.649,2.3c-.341,1.795-2.426,4.88-2.446,4.911a.591.591,0,0,0,.071.751l6.559,6.559a.591.591,0,0,0,.739.078l3.524-2.281a27.066,27.066,0,0,0,2.6-1.924l.076.076a4.625,4.625,0,0,0,6.54,0L67.653,54.463A4.631,4.631,0,0,0,67.653,47.922Zm-4.854-5.5a.591.591,0,0,0,.408-.43l.224-.942.225.942a.591.591,0,0,0,.408.43l1.719.508-1.719.508a.591.591,0,0,0-.408.43l-.225.942-.224-.942a.591.591,0,0,0-.408-.43l-1.719-.508ZM46.766,66.344l-3.122,2.021-5.88-5.88a17.689,17.689,0,0,0,2.349-4.9l2.522-8.952a1.017,1.017,0,0,1,2.012.272l-1.176,5.1a.592.592,0,0,0,.995.551l8.493-8.492a.893.893,0,0,1,1.235,0,.873.873,0,0,1,0,1.235h0l-6.248,6.248a.591.591,0,0,0,.836.836l7.974-7.975a.873.873,0,0,1,1.235,1.235L55.905,49.73h0L50.015,55.62a.591.591,0,1,0,.836.836l5.89-5.89A.893.893,0,0,1,58,51.83l-1.7,1.7L51.8,58.037a.591.591,0,1,0,.836.836l.317-.317h0l4.191-4.191a.873.873,0,0,1,1.207,0,.853.853,0,0,1,0,1.206L51,62.92a25.943,25.943,0,0,1-4.235,3.425ZM66.817,53.626,55.79,64.653a3.442,3.442,0,0,1-4.868,0l-.015-.015c.316-.287.627-.58.929-.881l7.348-7.348a2.035,2.035,0,0,0,0-2.879,1.936,1.936,0,0,0-.75-.457l.405-.405a2.079,2.079,0,0,0,0-2.936,2.054,2.054,0,0,0-.78-.482l.766-.766a2.056,2.056,0,1,0-2.908-2.908l-.415.415a2.031,2.031,0,0,0-.475-.76,2.1,2.1,0,0,0-2.907,0l-7.034,7.034.721-3.124a.67.67,0,0,0,.012-.068,2.2,2.2,0,0,0-4.336-.7L39.979,53.71l-.084-.084a3.447,3.447,0,0,1,0-4.868L50.922,37.731a3.441,3.441,0,0,1,4.868,0L60.06,42l-1.232.364a.591.591,0,0,0,0,1.135l3.308.979.72,3.028a.591.591,0,0,0,1.151,0l.3-1.258,2.51,2.51A3.448,3.448,0,0,1,66.817,53.626Z" transform="translate(-36.412 -35.22)" fill="#022c43"/>
      <path id="Path_11494" data-name="Path 11494" d="M55.575,35.745a.591.591,0,0,0,.592-.592V33.971a.592.592,0,0,0-1.183,0v1.183A.591.591,0,0,0,55.575,35.745Z" transform="translate(-52.237 -33.379)" fill="#022c43"/>
      <path id="Path_11495" data-name="Path 11495" d="M55.575,57.379a.591.591,0,0,0-.592.592v1.183a.592.592,0,0,0,1.183,0V57.971A.591.591,0,0,0,55.575,57.379Z" transform="translate(-52.237 -53.83)" fill="#022c43"/>
      <path id="Path_11496" data-name="Path 11496" d="M39.575,50.562h1.183a.592.592,0,0,0,0-1.183H39.575a.592.592,0,1,0,0,1.183Z" transform="translate(-38.603 -47.013)" fill="#022c43"/>
      <path id="Path_11497" data-name="Path 11497" d="M63.575,50.562h1.183a.592.592,0,1,0,0-1.183H63.575a.592.592,0,1,0,0,1.183Z" transform="translate(-59.054 -47.013)" fill="#022c43"/>
      <path id="Path_11498" data-name="Path 11498" d="M217.053,229.379a2.07,2.07,0,1,0,2.07,2.07A2.073,2.073,0,0,0,217.053,229.379Zm0,2.958a.887.887,0,1,1,.887-.887A.888.888,0,0,1,217.053,232.337Z" transform="translate(-188.575 -200.393)" fill="#022c43"/>
      <path id="Path_11499" data-name="Path 11499" d="M255.667,203.494a.632.632,0,1,0,.632.632A.632.632,0,0,0,255.667,203.494Z" transform="translate(-222.704 -178.336)" fill="#022c43"/>
    </g>
  </g>
</svg>
