<svg xmlns="http://www.w3.org/2000/svg" width="63" height="61" viewBox="0 0 63 61">
  <g id="choose-5" transform="translate(0.041 0.05)">
    <g id="Ellipse_1253" data-name="Ellipse 1253" transform="translate(-0.041 -0.05)" fill="#fff" stroke="gold" stroke-width="1">
      <ellipse cx="31.5" cy="30.5" rx="31.5" ry="30.5" stroke="none"/>
      <ellipse cx="31.5" cy="30.5" rx="31" ry="30" fill="none"/>
    </g>
    <g id="Group_16050" data-name="Group 16050" transform="translate(9.857 19.563)">
      <g id="Group_16036" data-name="Group 16036" transform="translate(0)">
        <g id="Path_10430" data-name="Path 10430" transform="translate(398 0)" fill="none" stroke-linecap="round">
          <path d="M-357.337,20.51h-37.427a2.925,2.925,0,0,1-2.288-1.191A4.618,4.618,0,0,1-398,16.443V4.067a4.618,4.618,0,0,1,.948-2.876A2.925,2.925,0,0,1-394.764,0h37.427a2.925,2.925,0,0,1,2.288,1.191,4.618,4.618,0,0,1,.948,2.876V16.443a4.618,4.618,0,0,1-.948,2.876A2.925,2.925,0,0,1-357.337,20.51Zm-35.035-7.249a1.135,1.135,0,0,0-.985,1.238v2.652a1.135,1.135,0,0,0,.985,1.238h25.608a1.135,1.135,0,0,0,.985-1.238V14.5a1.135,1.135,0,0,0-.985-1.238Z" stroke="none"/>
          <path d="M -357.3370361328125 19.51012992858887 C -356.7835693359375 19.51012992858887 -356.2488098144531 19.22113037109375 -355.8312683105469 18.69634056091309 C -355.3602905273438 18.10447883605957 -355.1009216308594 17.30436897277832 -355.1009216308594 16.44340896606445 L -355.1009216308594 4.066739559173584 C -355.1009216308594 3.205769777297974 -355.3602905273438 2.405659675598145 -355.8312683105469 1.813779711723328 C -356.2488098144531 1.289009690284729 -356.7835693359375 1.000009775161743 -357.3370361328125 1.000009775161743 L -394.7637939453125 1.000009775161743 C -395.3172302246094 1.000009775161743 -395.8519897460938 1.289009690284729 -396.2695617675781 1.813799738883972 C -396.7405090332031 2.405609846115112 -396.9998474121094 3.205719709396362 -396.9998474121094 4.066739559173584 L -396.9998474121094 16.44340896606445 C -396.9998474121094 17.30442047119141 -396.7405090332031 18.10453033447266 -396.2695617675781 18.69635963439941 C -395.8519897460938 19.22113037109375 -395.3172302246094 19.51012992858887 -394.7637939453125 19.51012992858887 L -357.3370361328125 19.51012992858887 M -392.3718566894531 12.26079940795898 L -366.7640991210938 12.26079940795898 C -365.6696166992188 12.26079940795898 -364.7791748046875 13.26462936401367 -364.7791748046875 14.49850940704346 L -364.7791748046875 17.1507396697998 C -364.7791748046875 18.38462066650391 -365.6696166992188 19.38845062255859 -366.7640991210938 19.38845062255859 L -392.3718566894531 19.38845062255859 C -393.4663696289062 19.38845062255859 -394.3568115234375 18.38462066650391 -394.3568115234375 17.1507396697998 L -394.3568115234375 14.49850940704346 C -394.3568115234375 13.26462936401367 -393.4663696289062 12.26079940795898 -392.3718566894531 12.26079940795898 M -357.3370361328125 20.51012992858887 L -394.7637939453125 20.51012992858887 C -395.6282043457031 20.51012992858887 -396.4408874511719 20.08711051940918 -397.0520629882812 19.31900024414062 C -397.6632690429688 18.55089950561523 -397.9998474121094 17.52965927124023 -397.9998474121094 16.44340896606445 L -397.9998474121094 4.066739559173584 C -397.9998474121094 2.980489730834961 -397.6632690429688 1.959239721298218 -397.0520629882812 1.191139698028564 C -396.4408874511719 0.4230297207832336 -395.6282043457031 9.732665603223722e-06 -394.7637939453125 9.732665603223722e-06 L -357.3370361328125 9.732665603223722e-06 C -356.4725646972656 9.732665603223722e-06 -355.6599426269531 0.4230297207832336 -355.0487670898438 1.191139698028564 C -354.4375610351562 1.959239721298218 -354.1009216308594 2.980489730834961 -354.1009216308594 4.066739559173584 L -354.1009216308594 16.44340896606445 C -354.1009216308594 17.52965927124023 -354.4375610351562 18.55089950561523 -355.0487670898438 19.31900024414062 C -355.6599426269531 20.08711051940918 -356.4725646972656 20.51012992858887 -357.3370361328125 20.51012992858887 Z M -392.3718566894531 13.26079940795898 C -392.9149475097656 13.26079940795898 -393.3568115234375 13.8160400390625 -393.3568115234375 14.49850940704346 L -393.3568115234375 17.1507396697998 C -393.3568115234375 17.83321952819824 -392.9149475097656 18.38845062255859 -392.3718566894531 18.38845062255859 L -366.7640991210938 18.38845062255859 C -366.2210083007812 18.38845062255859 -365.7791748046875 17.83321952819824 -365.7791748046875 17.1507396697998 L -365.7791748046875 14.49850940704346 C -365.7791748046875 13.8160400390625 -366.2210083007812 13.26079940795898 -366.7640991210938 13.26079940795898 L -392.3718566894531 13.26079940795898 Z" stroke="none" fill="gold"/>
        </g>
        <line id="Line_5" data-name="Line 5" x2="32.406" transform="translate(5.746 5.393)" fill="none" stroke="gold" stroke-linecap="round" stroke-width="1"/>
        <line id="Line_6" data-name="Line 6" x2="32.406" transform="translate(5.746 9.283)" fill="none" stroke="gold" stroke-linecap="round" stroke-width="1"/>
        <ellipse id="Ellipse_1254" data-name="Ellipse 1254" cx="1.5" cy="1" rx="1.5" ry="1" transform="translate(33.103 14.387)" fill="gold"/>
        <circle id="Ellipse_1255" data-name="Ellipse 1255" cx="1" cy="1" r="1" transform="translate(36.103 14.387)" fill="gold"/>
        <line id="Line_8" data-name="Line 8" y2="4.774" transform="translate(9.636 24.312)" fill="none" stroke="gold" stroke-linecap="round" stroke-width="1"/>
        <line id="Line_9" data-name="Line 9" y2="6.1" transform="translate(13.156 24.312)" fill="none" stroke="gold" stroke-linecap="round" stroke-width="1"/>
        <line id="Line_10" data-name="Line 10" y2="7.957" transform="translate(18.643 24.312)" fill="none" stroke="gold" stroke-linecap="round" stroke-width="1"/>
        <line id="Line_11" data-name="Line 11" y2="6.1" transform="translate(24.13 24.312)" fill="none" stroke="gold" stroke-linecap="round" stroke-width="1"/>
        <line id="Line_12" data-name="Line 12" y2="4.774" transform="translate(29.618 24.312)" fill="none" stroke="gold" stroke-linecap="round" stroke-width="1"/>
      </g>
    </g>
  </g>
</svg>
