<svg xmlns="http://www.w3.org/2000/svg" width="467.618" height="411.837" viewBox="0 0 467.618 411.837">
  <g id="content-1" transform="translate(-682.443 -417.03)">
    <path id="blob_1_" data-name="blob (1)" d="M379.969,70.22c21.443,71.711-27.77,160.647-105.809,219.7-78.39,59.056-185.253,88.584-256.613,42.886S-89.668,166.187-57.328,79.712C-25.339-6.412,74.494-58.086,170.46-56.68,266.426-55.625,358.526-1.491,379.969,70.22Z" transform="translate(765.054 473.738)" fill="gold"/>
    <path id="blob_1_2" data-name="blob (1)" d="M379.969,46.824C401.412,105.317,352.2,177.859,274.16,226.03,195.77,274.2,88.907,298.285,17.547,261.011S-89.668,125.1-57.328,54.566C-25.339-15.683,74.494-57.832,170.46-56.685,266.426-55.825,358.526-11.669,379.969,46.824Z" transform="translate(751.751 500.344)" fill="gold" opacity="0.17"/>
    <text id="_50_" data-name="50%" transform="translate(774 607.145)" fill="#fff" font-size="92" font-family="SegoeUI-Bold, Segoe UI" font-weight="700"><tspan x="0" y="0">50%</tspan></text>
    <text id="_Off" data-name="  Off" transform="translate(851 684.145)" fill="#022c43" font-size="92" font-family="SegoeUI-Bold, Segoe UI" font-weight="700"><tspan x="0" y="0" xml:space="preserve">  Off</tspan></text>
  </g>
</svg>
